<svg xmlns="http://www.w3.org/2000/svg" xmlns:xlink="http://www.w3.org/1999/xlink" version="1.1" x="0px" y="0px" viewBox="0 0 100 125" enable-background="new 0 0 100 100" xml:space="preserve" fill="lightgray"><g><rect x="-192" width="185" height="99"/><rect y="-36" width="100" height="30"/><text transform="matrix(1 0 0 1 66 -19.5)" fill="#000000" font-family="'Helvetica'" font-size="2.4">http://thenounproject.com</text><text transform="matrix(1 0 0 1 7.166 -24.5)"><tspan x="0" y="0" fill="#000000" font-family="'Helvetica-Bold'" font-size="6.1578">The Noun Project</tspan><tspan x="1.12" y="4.8" fill="#000000" font-family="'Helvetica-Bold'" font-size="4">Icon Template</tspan></text><text transform="matrix(1 0 0 1 -178.5 10.5)" fill="#000000" font-family="'Helvetica-Bold'" font-size="6.1578">Reminders</text><line fill="#000000" stroke="#FFFFFF" stroke-miterlimit="10" x1="8" y1="-14.5" x2="18" y2="-14.5"/><line fill="#000000" stroke="#FFFFFF" stroke-miterlimit="10" x1="-179" y1="16.5" x2="-162" y2="16.5"/><g><g><g><rect x="-170.802" y="31.318" fill="#000000" width="8.721" height="8.642"/><path fill="#000000" d="M-164.455,42.312h4.747v-4.703h-4.747V42.312z M-159.266,42.749h-5.63V37.17h5.63V42.749      L-159.266,42.749z M-166.221,44.062h8.279v-8.203h-8.279V44.062L-166.221,44.062z M-157.5,44.5h-9.163v-9.079h9.163V44.5      L-157.5,44.5z"/><polygon fill="#000000" points="-166.149,44.133 -166.292,43.991 -158.013,35.787 -157.871,35.929     "/></g></g></g><rect x="-179" y="58" fill="none" width="35" height="32.5"/><text transform="matrix(1 0 0 1 -179 60.1572)"><tspan x="0" y="0" fill="#000000" font-family="'Helvetica-Bold'" font-size="3">Strokes</tspan><tspan x="0" y="5" fill="#000000" font-family="'Helvetica'" font-size="2.4">Try to keep strokes at 4px</tspan><tspan x="0" y="10" fill="#000000" font-family="'Helvetica'" font-size="2.4">Minimum stroke weight is 2px</tspan><tspan x="0" y="14.5" fill="#000000" font-family="'Helvetica'" font-size="2.4">For thicker strokes use even </tspan><tspan x="0" y="17.5" fill="#000000" font-family="'Helvetica'" font-size="2.4">numbers: 6px, 8px etc.</tspan><tspan x="0" y="22" fill="#000000" font-family="'Helvetica-Bold'" font-size="2.4">Remember to expand strokes </tspan><tspan x="0" y="25" fill="#000000" font-family="'Helvetica-Bold'" font-size="2.4">before saving as an SVG </tspan></text><rect x="-136.5" y="58" fill="none" width="35" height="32.5"/><text transform="matrix(1 0 0 1 -136.5 60.1572)"><tspan x="0" y="0" fill="#000000" font-family="'Helvetica-Bold'" font-size="3">Size</tspan><tspan x="0" y="5" fill="#000000" font-family="'Helvetica'" font-size="2.4">Cannot be wider or taller than </tspan><tspan x="0" y="8.5" fill="#000000" font-family="'Helvetica'" font-size="2.4">100px (artboard size)</tspan><tspan x="0" y="13.5" fill="#000000" font-family="'Helvetica'" font-size="2.4">Scale your icon to fill as much of </tspan><tspan x="0" y="16.5" fill="#000000" font-family="'Helvetica'" font-size="2.4">the artboard as possible</tspan></text><rect x="-94" y="58" fill="none" width="35" height="32.5"/><text transform="matrix(1 0 0 1 -94 60.1572)"><tspan x="0" y="0" fill="#000000" font-family="'Helvetica-Bold'" font-size="3">Ungroup</tspan><tspan x="0" y="5" fill="#000000" font-family="'Helvetica'" font-size="2.4">If your design has more than one </tspan><tspan x="0" y="8" fill="#000000" font-family="'Helvetica'" font-size="2.4">shape, make sure to ungroup</tspan></text><rect x="-50" y="58" fill="none" width="35" height="32.5"/><text transform="matrix(1 0 0 1 -50 60.1572)"><tspan x="0" y="0" fill="#000000" font-family="'Helvetica-Bold'" font-size="3">Save as</tspan><tspan x="0" y="5" fill="#000000" font-family="'Helvetica'" font-size="2.4">Save as .SVG and make sure </tspan><tspan x="0" y="8" fill="#000000" font-family="'Helvetica'" font-size="2.4">“Use Artboards” is checked</tspan></text><text transform="matrix(1.0074 0 0 1 -125.542 30.5933)" fill="#000000" font-family="'Helvetica'" font-size="2.5731">100px</text><text transform="matrix(1.0074 0 0 1 -41 39)" fill="#000000" font-family="'Helvetica-Bold'" font-size="5.1462">.SVG</text><rect x="-126.514" y="34.815" fill="#000000" width="10.261" height="10.185"/><rect x="-126.477" y="31.766" fill="#000000" width="0.522" height="2.337"/><rect x="-116.812" y="31.766" fill="#000000" width="0.523" height="2.337"/><rect x="-127" y="32.337" fill="#000000" width="11.233" height="0.572"/><g><rect x="-83.805" y="33.844" fill="#000000" width="10.305" height="10.156"/><rect x="-76.809" y="28.707" fill="#000000" width="3.308" height="3.261"/></g><rect x="-178.5" y="22.5" fill="#000000" stroke="#FFFFFF" stroke-miterlimit="10" width="30" height="30"/><rect x="-136.5" y="22.5" fill="#000000" stroke="#FFFFFF" stroke-miterlimit="10" width="30" height="30"/><rect x="-93.5" y="22.5" fill="#000000" stroke="#FFFFFF" stroke-miterlimit="10" width="30" height="30"/><rect x="-49.5" y="22.5" fill="#000000" stroke="#FFFFFF" stroke-miterlimit="10" width="30" height="30"/></g><g><g><path d="M61.65,33.752v10.23c-0.332,0-0.601,0.269-0.601,0.602c0,0.332,0.269,0.601,0.601,0.601h2.404    c0.332,0,0.602-0.269,0.602-0.601c0-0.333-0.27-0.602-0.602-0.602v-10.23c0-1.492-0.591-2.855-1.566-3.834    c-0.218-0.218-0.506-0.365-0.838-0.365c-0.664,0-1.202,0.538-1.202,1.202c0,0.333,0.119,0.644,0.337,0.861    C61.328,32.16,61.65,32.922,61.65,33.752z"/><path d="M37,58.184c0,0.333,0.27,0.602,0.602,0.602h2.404c0.332,0,0.602-0.269,0.602-0.602c0-0.332-0.27-0.602-0.602-0.602V47.364    c0.332,0,0.602-0.269,0.602-0.601s-0.27-0.601-0.602-0.601h-2.404c-0.332,0-0.602,0.269-0.602,0.601s0.27,0.601,0.602,0.601    v10.218C37.27,57.582,37,57.852,37,58.184z"/><path d="M40.006,63.596v-2.406c0.332,0,0.602-0.268,0.602-0.6s-0.27-0.602-0.602-0.602h-2.404c-0.332,0-0.602,0.27-0.602,0.602    s0.27,0.6,0.602,0.6v2.406c0,0.664,0.538,1.201,1.202,1.201S40.006,64.26,40.006,63.596z"/><path d="M64.656,46.763c0-0.332-0.27-0.601-0.602-0.601H61.65c-0.332,0-0.601,0.269-0.601,0.601s0.269,0.601,0.601,0.601v10.218    c-0.332,0-0.601,0.27-0.601,0.602c0,0.333,0.269,0.602,0.601,0.602h2.404c0.332,0,0.602-0.269,0.602-0.602    c0-0.332-0.27-0.602-0.602-0.602V47.364C64.387,47.364,64.656,47.095,64.656,46.763z"/><path d="M64.055,59.988H61.65c-0.332,0-0.601,0.27-0.601,0.602s0.269,0.6,0.601,0.6v2.406c0,0.664,0.538,1.201,1.202,1.201    s1.202-0.537,1.202-1.201v-2.406c0.332,0,0.602-0.268,0.602-0.6S64.387,59.988,64.055,59.988z"/><path d="M47.648,23.474c0,1.082,0,2.164,0,2.164h0.774v-1.202c0-0.185,0.15-0.334,0.335-0.334c0.184,0,0.334,0.149,0.334,0.334    v1.202h0.801v-1.202c0-0.185,0.149-0.334,0.334-0.334s0.334,0.149,0.334,0.334v1.202h0.802v-1.202c0-0.185,0.15-0.334,0.335-0.334    c0.184,0,0.334,0.149,0.334,0.334v1.202h0.801v-1.202c0-0.185,0.149-0.334,0.334-0.334S53.5,24.25,53.5,24.436v1.202h0.642    c0,0,0-1.082,0-2.164c0-1.083,2.271-1.083,2.271-1.083c0.552-0.955,0.975-2.064,0.975-3.247c0-3.586-2.907-6.493-6.492-6.493    c-3.587,0-6.494,2.907-6.494,6.493c0,1.183,0.424,2.292,0.976,3.247C45.377,22.391,47.648,22.391,47.648,23.474z M53.835,18.422    c0.663,0,1.202,0.539,1.202,1.203s-0.539,1.203-1.202,1.203c-0.665,0-1.202-0.539-1.202-1.203S53.17,18.422,53.835,18.422z     M50.414,22.401l0.481-0.832l0.479,0.832l0.481,0.832h-0.96h-0.962L50.414,22.401z M47.822,18.422    c0.663,0,1.201,0.539,1.201,1.203s-0.538,1.203-1.201,1.203c-0.664,0-1.202-0.539-1.202-1.203S47.158,18.422,47.822,18.422z"/><path d="M43.68,39.172c-0.663,0-1.201,0.538-1.201,1.203c0,0.664,0.538,1.202,1.201,1.202h6.013v1.202v2.405v14.601    c0,0.616,0.538,1.115,1.203,1.115c0.663,0,1.202-0.499,1.202-1.115V45.185V42.78v-1.202h6.012c0.664,0,1.203-0.539,1.203-1.202    c0-0.665-0.539-1.203-1.203-1.203h-6.012V37.97h6.012c0.664,0,1.203-0.538,1.203-1.202c0-0.665-0.539-1.203-1.203-1.203h-6.012    v-1.202h6.012c0.664,0,1.203-0.538,1.203-1.202c0-0.665-0.539-1.203-1.203-1.203h-6.012v-1.203h6.012    c0.664,0,1.203-0.538,1.203-1.202c0-0.665-0.539-1.203-1.203-1.203h-6.012v-0.364c0-0.617-0.539-1.117-1.202-1.117    c-0.665,0-1.203,0.5-1.203,1.117v0.364H43.68c-0.663,0-1.201,0.538-1.201,1.203c0,0.664,0.538,1.202,1.201,1.202h6.013v1.203    H43.68c-0.663,0-1.201,0.538-1.201,1.203c0,0.664,0.538,1.202,1.201,1.202h6.013v1.202H43.68c-0.663,0-1.201,0.538-1.201,1.203    c0,0.664,0.538,1.202,1.201,1.202h6.013v1.203H43.68z"/><path d="M43.383,45.185h3.904c0.665,0,1.203-0.538,1.203-1.203c0-0.664-0.538-1.202-1.203-1.202h-3.904    c-0.5,0-0.904,0.538-0.904,1.202C42.479,44.646,42.883,45.185,43.383,45.185z"/><path d="M59.312,43.982c0-0.664-0.417-1.202-0.93-1.202h-3.881c-0.663,0-1.202,0.538-1.202,1.202c0,0.665,0.539,1.203,1.202,1.203    h3.881C58.896,45.185,59.312,44.646,59.312,43.982z"/><path d="M47.822,64.594h6.013c0.4,0,0.726-0.537,0.726-1.201c0-1.328,1.076-2.406,2.404-2.406c0.664,0,1.203-0.537,1.203-1.201    s-0.539-1.203-1.203-1.203H53.3v1.203c0,1.328-1.077,2.404-2.404,2.404c-1.329,0-2.405-1.076-2.405-2.404v-1.203h-3.799    c-0.664,0-1.202,0.539-1.202,1.203s0.538,1.201,1.202,1.201c1.328,0,2.404,1.078,2.404,2.406    C47.096,64.057,47.422,64.594,47.822,64.594z"/><path d="M58.135,78.355l0.033-14.963c0-0.666-0.539-1.203-1.203-1.203s-1.202,0.537-1.202,1.203l-0.033,14.963    c-0.332,0-0.635,0.27-0.635,0.602s0.27,0.602,0.602,0.602h2.405c0.331,0,0.602-0.27,0.602-0.602S58.467,78.355,58.135,78.355z"/><path d="M44.691,62.189c-0.664,0-1.202,0.537-1.202,1.203l-0.034,14.963c-0.332,0-0.635,0.27-0.635,0.602s0.27,0.602,0.601,0.602    h2.406c0.331,0,0.601-0.27,0.601-0.602s-0.236-0.602-0.567-0.602l0.032-14.963C45.893,62.727,45.355,62.189,44.691,62.189z"/><path d="M37.602,45.185h2.404c0.332,0,0.602-0.269,0.602-0.601c0-0.333-0.27-0.602-0.602-0.602v-10.23    c0-0.83,0.322-1.592,0.865-2.136c0.218-0.217,0.337-0.528,0.337-0.861c0-0.664-0.538-1.202-1.202-1.202    c-0.332,0-0.619,0.146-0.838,0.365c-0.976,0.979-1.566,2.342-1.566,3.834v10.23c-0.332,0-0.602,0.269-0.602,0.602    C37,44.916,37.27,45.185,37.602,45.185z"/><path d="M44.989,97.23c0.218,0.217,0.505,0.365,0.838,0.365c0.663,0,1.202-0.539,1.202-1.203c0-0.332-0.119-0.643-0.338-0.861    c-0.544-0.543-0.864-1.305-0.864-2.135V81.748c0.331,0,0.601-0.27,0.601-0.602s-0.27-0.602-0.601-0.602h-2.406    c-0.331,0-0.601,0.27-0.601,0.602s0.27,0.602,0.601,0.602v11.648C43.421,94.889,44.013,96.252,44.989,97.23z"/><path d="M55.638,97.596c0.333,0,0.62-0.148,0.839-0.365c0.975-0.979,1.566-2.342,1.566-3.834V81.748    c0.332,0,0.602-0.27,0.602-0.602s-0.27-0.602-0.602-0.602h-2.405c-0.332,0-0.601,0.27-0.601,0.602s0.269,0.602,0.601,0.602v11.648    c0,0.83-0.321,1.592-0.865,2.135c-0.217,0.219-0.337,0.529-0.337,0.861C54.436,97.057,54.974,97.596,55.638,97.596z"/><path d="M47.908,97.6c-0.416,0.715-1.193,1.197-2.081,1.197c-0.891,0-1.668-0.482-2.084-1.201h-4.338    c-0.664,0-1.202,0.539-1.202,1.201c0,0.664,0.538,1.203,1.202,1.203h8.417c0.663,0,1.201-0.539,1.201-1.203    C49.023,98.162,48.531,97.645,47.908,97.6z"/><path d="M62.252,97.596h-4.531c-0.415,0.719-1.193,1.201-2.083,1.201c-0.878,0-1.646-0.471-2.065-1.172    c-0.538,0.119-0.939,0.6-0.939,1.172c0,0.664,0.537,1.203,1.202,1.203h8.417c0.663,0,1.201-0.539,1.201-1.203    C63.453,98.135,62.915,97.596,62.252,97.596z"/></g></g></svg>
